<?xml version="1.0" encoding="UTF-8"?>
<svg xmlns="http://www.w3.org/2000/svg" xmlns:xlink="http://www.w3.org/1999/xlink" width="32pt" height="32pt" viewBox="0 0 32 32" version="1.1">
<g id="surface7573999">
<path style=" stroke:none;fill-rule:nonzero;fill:rgb(100%,100%,100%);fill-opacity:1;" d="M 21.765625 3.601562 C 21.542969 3.589844 21.355469 3.757812 21.347656 3.980469 C 21.335938 4.199219 21.507812 4.386719 21.726562 4.398438 L 21.746094 4.398438 C 21.960938 4.398438 22.136719 4.230469 22.144531 4.015625 C 22.15625 3.796875 21.984375 3.609375 21.765625 3.601562 Z M 10.753906 3.640625 C 10.53125 3.617188 10.332031 3.773438 10.308594 3.992188 C 10.28125 4.210938 10.441406 4.40625 10.660156 4.4375 L 10.703125 4.4375 C 10.902344 4.4375 11.074219 4.289062 11.101562 4.085938 C 11.128906 3.863281 10.96875 3.664062 10.753906 3.640625 Z M 20.199219 3.898438 C 20.144531 3.894531 20.09375 3.902344 20.039062 3.925781 C 19.835938 4.003906 19.730469 4.234375 19.8125 4.445312 C 19.875 4.601562 20.027344 4.699219 20.1875 4.699219 C 20.234375 4.699219 20.285156 4.691406 20.332031 4.671875 C 20.535156 4.59375 20.640625 4.359375 20.558594 4.15625 C 20.5 4 20.355469 3.902344 20.199219 3.898438 Z M 9.101562 3.941406 C 9.050781 3.953125 9 3.96875 8.953125 4 C 8.765625 4.117188 8.707031 4.363281 8.828125 4.550781 C 8.898438 4.671875 9.03125 4.738281 9.164062 4.738281 C 9.234375 4.738281 9.3125 4.71875 9.375 4.675781 C 9.5625 4.558594 9.621094 4.3125 9.503906 4.125 C 9.417969 3.984375 9.257812 3.917969 9.101562 3.941406 Z M 12.242188 4.109375 C 12.085938 4.101562 11.9375 4.1875 11.863281 4.335938 C 11.769531 4.535156 11.855469 4.777344 12.054688 4.871094 C 12.109375 4.894531 12.167969 4.90625 12.222656 4.90625 C 12.375 4.90625 12.519531 4.824219 12.589844 4.679688 C 12.679688 4.480469 12.597656 4.242188 12.394531 4.148438 C 12.347656 4.125 12.292969 4.113281 12.242188 4.109375 Z M 23.183594 4.21875 C 23.078125 4.214844 22.976562 4.253906 22.898438 4.332031 C 22.738281 4.488281 22.738281 4.738281 22.894531 4.894531 C 22.972656 4.976562 23.074219 5.015625 23.179688 5.015625 C 23.28125 5.015625 23.382812 4.980469 23.460938 4.898438 C 23.617188 4.746094 23.621094 4.492188 23.464844 4.335938 C 23.386719 4.257812 23.285156 4.21875 23.183594 4.21875 Z M 18.703125 4.640625 C 18.648438 4.652344 18.597656 4.671875 18.550781 4.699219 C 18.367188 4.820312 18.3125 5.066406 18.433594 5.257812 C 18.507812 5.371094 18.640625 5.4375 18.773438 5.4375 C 18.84375 5.4375 18.921875 5.414062 18.988281 5.371094 C 19.171875 5.257812 19.222656 5.007812 19.109375 4.820312 C 19.019531 4.683594 18.855469 4.617188 18.703125 4.640625 Z M 13.605469 4.921875 C 13.429688 4.917969 13.269531 5.03125 13.214844 5.199219 C 13.160156 5.367188 13.222656 5.550781 13.367188 5.652344 L 13.371094 5.652344 C 14.027344 6.117188 14.71875 6.714844 15.414062 7.40625 C 14.609375 8.265625 13.808594 9.246094 13.03125 10.332031 C 11.5 10.46875 10.070312 10.710938 8.777344 11.035156 C 8.535156 10.074219 8.371094 9.171875 8.3125 8.371094 C 8.300781 8.160156 8.128906 7.996094 7.917969 7.996094 C 7.804688 7.992188 7.695312 8.039062 7.617188 8.121094 C 7.542969 8.203125 7.503906 8.316406 7.511719 8.429688 C 7.574219 9.289062 7.746094 10.238281 8.003906 11.242188 C 7.214844 11.472656 6.484375 11.734375 5.835938 12.027344 C 5.800781 12.042969 5.765625 12.066406 5.738281 12.089844 C 5.710938 12.097656 5.6875 12.097656 5.664062 12.109375 C 5.464844 12.199219 5.378906 12.441406 5.472656 12.640625 C 5.539062 12.785156 5.683594 12.867188 5.835938 12.867188 C 5.890625 12.867188 5.953125 12.855469 6.003906 12.832031 C 6.027344 12.820312 6.039062 12.804688 6.058594 12.789062 C 6.097656 12.785156 6.132812 12.773438 6.164062 12.757812 C 6.769531 12.484375 7.457031 12.238281 8.207031 12.015625 C 8.578125 13.28125 9.085938 14.625 9.726562 16.003906 C 9.164062 17.214844 8.695312 18.40625 8.339844 19.535156 C 7.539062 19.304688 6.804688 19.046875 6.164062 18.757812 C 6.164062 18.757812 6.164062 18.753906 6.160156 18.753906 C 6.113281 18.734375 6.0625 18.722656 6.011719 18.71875 C 5.847656 18.714844 5.699219 18.804688 5.632812 18.953125 C 5.566406 19.101562 5.59375 19.277344 5.707031 19.394531 C 5.742188 19.429688 5.78125 19.460938 5.828125 19.484375 C 5.832031 19.484375 5.832031 19.488281 5.835938 19.488281 C 5.84375 19.492188 5.851562 19.492188 5.855469 19.496094 C 6.53125 19.796875 7.292969 20.066406 8.113281 20.304688 C 8 20.714844 7.894531 21.121094 7.8125 21.515625 C 7.777344 21.65625 7.824219 21.804688 7.929688 21.902344 C 8.035156 22 8.1875 22.035156 8.328125 21.988281 C 8.464844 21.941406 8.566406 21.824219 8.59375 21.683594 C 8.675781 21.304688 8.777344 20.910156 8.886719 20.511719 C 10.042969 20.792969 11.3125 21.007812 12.660156 21.144531 C 13.550781 22.441406 14.484375 23.597656 15.417969 24.59375 C 15.015625 24.992188 14.617188 25.367188 14.222656 25.691406 C 14.113281 25.78125 14.058594 25.925781 14.082031 26.070312 C 14.105469 26.210938 14.203125 26.328125 14.339844 26.378906 C 14.472656 26.429688 14.625 26.402344 14.734375 26.308594 C 15.144531 25.96875 15.558594 25.582031 15.972656 25.167969 C 16.5625 25.753906 17.148438 26.273438 17.726562 26.710938 C 17.726562 26.714844 17.730469 26.71875 17.730469 26.71875 C 17.84375 26.808594 18 26.832031 18.132812 26.777344 C 18.265625 26.722656 18.363281 26.597656 18.378906 26.453125 C 18.394531 26.308594 18.335938 26.167969 18.21875 26.082031 C 17.667969 25.664062 17.105469 25.164062 16.535156 24.59375 C 17.46875 23.601562 18.402344 22.445312 19.292969 21.148438 C 20.648438 21.011719 21.917969 20.796875 23.078125 20.511719 C 23.269531 21.195312 23.417969 21.851562 23.519531 22.464844 C 23.554688 22.683594 23.761719 22.832031 23.980469 22.796875 C 24.199219 22.757812 24.347656 22.554688 24.308594 22.335938 C 24.203125 21.691406 24.050781 21.015625 23.855469 20.3125 C 24.535156 20.121094 25.171875 19.902344 25.753906 19.664062 C 25.886719 19.609375 25.980469 19.488281 26 19.347656 C 26.019531 19.203125 25.960938 19.0625 25.847656 18.972656 C 25.730469 18.886719 25.578125 18.867188 25.445312 18.925781 C 24.894531 19.152344 24.28125 19.359375 23.625 19.546875 C 23.265625 18.410156 22.800781 17.21875 22.234375 15.996094 C 22.875 14.617188 23.382812 13.273438 23.753906 12.007812 C 24.210938 12.140625 24.652344 12.28125 25.058594 12.4375 C 25.265625 12.515625 25.496094 12.414062 25.574219 12.207031 C 25.65625 12 25.554688 11.769531 25.347656 11.691406 C 25.347656 11.6875 25.34375 11.6875 25.34375 11.6875 C 24.914062 11.523438 24.449219 11.378906 23.96875 11.238281 C 24.144531 10.546875 24.28125 9.882812 24.367188 9.257812 L 24.367188 9.253906 C 24.386719 9.140625 24.351562 9.023438 24.277344 8.9375 C 24.203125 8.847656 24.097656 8.796875 23.980469 8.792969 C 23.777344 8.789062 23.601562 8.941406 23.578125 9.140625 C 23.578125 9.144531 23.574219 9.144531 23.574219 9.144531 C 23.496094 9.734375 23.363281 10.367188 23.195312 11.027344 C 21.902344 10.703125 20.464844 10.464844 18.925781 10.332031 C 18.148438 9.246094 17.34375 8.257812 16.539062 7.398438 C 17.117188 6.824219 17.6875 6.316406 18.242188 5.894531 C 18.378906 5.792969 18.4375 5.613281 18.382812 5.449219 C 18.332031 5.285156 18.179688 5.175781 18.007812 5.175781 C 17.917969 5.171875 17.828125 5.203125 17.757812 5.257812 C 17.171875 5.703125 16.574219 6.234375 15.972656 6.832031 C 15.25 6.113281 14.53125 5.492188 13.832031 5 C 13.765625 4.949219 13.6875 4.925781 13.605469 4.921875 Z M 8.191406 5.183594 C 8.039062 5.1875 7.890625 5.285156 7.832031 5.441406 C 7.753906 5.644531 7.855469 5.875 8.0625 5.957031 C 8.113281 5.976562 8.160156 5.984375 8.203125 5.984375 C 8.367188 5.984375 8.519531 5.882812 8.578125 5.722656 C 8.660156 5.519531 8.554688 5.289062 8.347656 5.207031 C 8.296875 5.1875 8.242188 5.179688 8.191406 5.183594 Z M 23.96875 5.625 C 23.917969 5.617188 23.863281 5.617188 23.8125 5.632812 C 23.597656 5.6875 23.46875 5.902344 23.519531 6.117188 C 23.566406 6.300781 23.730469 6.421875 23.90625 6.421875 C 23.941406 6.421875 23.976562 6.414062 24.007812 6.40625 C 24.21875 6.351562 24.351562 6.136719 24.296875 5.921875 C 24.253906 5.761719 24.121094 5.648438 23.96875 5.625 Z M 7.925781 6.746094 C 7.703125 6.734375 7.511719 6.898438 7.5 7.125 C 7.484375 7.34375 7.652344 7.53125 7.875 7.542969 C 7.882812 7.546875 7.890625 7.546875 7.898438 7.546875 C 8.109375 7.546875 8.285156 7.382812 8.300781 7.171875 C 8.3125 6.953125 8.144531 6.757812 7.925781 6.746094 Z M 24.085938 7.203125 C 23.863281 7.203125 23.6875 7.382812 23.6875 7.609375 C 23.6875 7.828125 23.867188 8.003906 24.089844 8.003906 C 24.308594 8.003906 24.488281 7.824219 24.488281 7.605469 C 24.488281 7.382812 24.308594 7.203125 24.085938 7.203125 Z M 15.976562 7.976562 C 16.613281 8.65625 17.25 9.425781 17.878906 10.257812 C 17.261719 10.226562 16.640625 10.203125 16 10.203125 C 15.34375 10.203125 14.703125 10.226562 14.074219 10.261719 C 14.703125 9.425781 15.339844 8.660156 15.976562 7.976562 Z M 16 11.003906 C 16.851562 11.003906 17.6875 11.035156 18.492188 11.097656 C 19.050781 11.890625 19.59375 12.738281 20.109375 13.632812 C 20.566406 14.425781 20.980469 15.214844 21.351562 15.992188 C 20.976562 16.777344 20.5625 17.574219 20.101562 18.371094 C 20.097656 18.375 20.097656 18.378906 20.09375 18.382812 C 20.09375 18.386719 20.089844 18.386719 20.089844 18.390625 C 19.6875 19.089844 19.265625 19.753906 18.839844 20.390625 C 17.925781 20.46875 16.976562 20.511719 16 20.511719 C 15.011719 20.511719 14.046875 20.46875 13.121094 20.386719 C 12.691406 19.75 12.269531 19.085938 11.867188 18.386719 C 11.402344 17.582031 10.992188 16.78125 10.613281 15.992188 C 10.988281 15.207031 11.402344 14.414062 11.863281 13.617188 C 11.863281 13.613281 11.863281 13.613281 11.867188 13.613281 C 11.867188 13.609375 11.867188 13.609375 11.871094 13.605469 C 12.378906 12.722656 12.914062 11.890625 13.460938 11.105469 C 14.285156 11.042969 15.128906 11.003906 16 11.003906 Z M 19.523438 11.195312 C 20.761719 11.332031 21.925781 11.535156 22.980469 11.796875 C 22.675781 12.832031 22.273438 13.925781 21.777344 15.054688 C 21.472656 14.453125 21.152344 13.84375 20.800781 13.234375 C 20.390625 12.523438 19.960938 11.847656 19.523438 11.195312 Z M 12.429688 11.203125 C 12 11.84375 11.578125 12.507812 11.175781 13.207031 C 11.175781 13.207031 11.171875 13.210938 11.171875 13.214844 C 11.171875 13.214844 11.171875 13.214844 11.171875 13.21875 C 10.816406 13.832031 10.492188 14.441406 10.183594 15.050781 C 9.695312 13.929688 9.289062 12.835938 8.984375 11.808594 C 10.035156 11.546875 11.195312 11.34375 12.429688 11.203125 Z M 26.695312 12.316406 C 26.539062 12.304688 26.382812 12.382812 26.304688 12.527344 C 26.199219 12.722656 26.277344 12.964844 26.472656 13.066406 C 26.53125 13.101562 26.597656 13.117188 26.660156 13.117188 C 26.800781 13.117188 26.941406 13.039062 27.011719 12.902344 C 27.117188 12.710938 27.039062 12.46875 26.847656 12.363281 C 26.796875 12.339844 26.746094 12.324219 26.695312 12.316406 Z M 4.515625 12.867188 C 4.417969 12.851562 4.308594 12.871094 4.214844 12.9375 C 4.035156 13.0625 3.992188 13.3125 4.121094 13.492188 C 4.199219 13.605469 4.324219 13.664062 4.449219 13.664062 C 4.527344 13.664062 4.609375 13.640625 4.675781 13.589844 L 4.679688 13.59375 C 4.859375 13.464844 4.902344 13.210938 4.777344 13.03125 C 4.710938 12.941406 4.617188 12.886719 4.515625 12.867188 Z M 27.957031 13.199219 C 27.855469 13.207031 27.757812 13.253906 27.683594 13.339844 C 27.539062 13.507812 27.5625 13.761719 27.730469 13.902344 C 27.808594 13.96875 27.898438 14 27.988281 14 C 28.105469 14 28.214844 13.953125 28.296875 13.855469 C 28.4375 13.6875 28.414062 13.4375 28.246094 13.296875 C 28.164062 13.222656 28.058594 13.191406 27.957031 13.199219 Z M 16 13.601562 C 14.675781 13.601562 13.601562 14.675781 13.601562 16 C 13.601562 17.328125 14.675781 18.402344 16 18.402344 C 17.324219 18.402344 18.398438 17.328125 18.398438 16 C 18.398438 14.675781 17.324219 13.601562 16 13.601562 Z M 3.226562 13.964844 C 3.125 13.980469 3.03125 14.035156 2.96875 14.125 C 2.839844 14.304688 2.878906 14.554688 3.058594 14.683594 C 3.128906 14.730469 3.210938 14.761719 3.292969 14.761719 C 3.417969 14.761719 3.539062 14.699219 3.617188 14.59375 C 3.746094 14.414062 3.703125 14.164062 3.527344 14.035156 C 3.4375 13.96875 3.328125 13.949219 3.226562 13.964844 Z M 28.972656 14.433594 C 28.921875 14.4375 28.871094 14.449219 28.820312 14.472656 C 28.621094 14.5625 28.53125 14.800781 28.625 15 C 28.691406 15.148438 28.835938 15.230469 28.988281 15.230469 C 29.042969 15.230469 29.101562 15.21875 29.15625 15.195312 C 29.355469 15.105469 29.445312 14.863281 29.351562 14.664062 C 29.28125 14.515625 29.128906 14.425781 28.972656 14.433594 Z M 2.785156 15.449219 C 2.566406 15.460938 2.394531 15.644531 2.402344 15.867188 C 2.414062 16.082031 2.589844 16.246094 2.804688 16.246094 L 2.820312 16.246094 C 3.039062 16.238281 3.210938 16.050781 3.199219 15.832031 C 3.191406 15.609375 3.003906 15.441406 2.785156 15.449219 Z M 29.0625 15.992188 C 28.910156 16.003906 28.769531 16.113281 28.71875 16.269531 L 28.71875 16.273438 C 28.65625 16.480469 28.773438 16.703125 28.984375 16.773438 C 29.019531 16.785156 29.0625 16.789062 29.101562 16.789062 C 29.273438 16.789062 29.429688 16.679688 29.484375 16.507812 C 29.546875 16.300781 29.433594 16.074219 29.21875 16.007812 C 29.167969 15.992188 29.113281 15.984375 29.0625 15.992188 Z M 3.445312 16.902344 C 3.34375 16.890625 3.238281 16.921875 3.152344 16.988281 C 2.980469 17.128906 2.953125 17.378906 3.09375 17.550781 C 3.167969 17.648438 3.285156 17.699219 3.402344 17.699219 C 3.492188 17.699219 3.582031 17.671875 3.652344 17.613281 C 3.824219 17.476562 3.851562 17.222656 3.714844 17.050781 C 3.644531 16.964844 3.546875 16.914062 3.445312 16.902344 Z M 10.183594 16.929688 C 10.492188 17.546875 10.816406 18.164062 11.171875 18.785156 C 11.46875 19.296875 11.773438 19.792969 12.085938 20.273438 C 11.027344 20.140625 10.03125 19.964844 9.113281 19.738281 C 9.398438 18.839844 9.757812 17.894531 10.183594 16.929688 Z M 21.777344 16.929688 C 22.207031 17.898438 22.558594 18.84375 22.847656 19.746094 C 21.921875 19.96875 20.929688 20.152344 19.867188 20.28125 C 20.175781 19.800781 20.484375 19.304688 20.78125 18.792969 C 20.789062 18.777344 20.796875 18.765625 20.804688 18.75 C 21.15625 18.140625 21.476562 17.535156 21.777344 16.929688 Z M 28.234375 17.304688 C 28.128906 17.304688 28.027344 17.339844 27.949219 17.414062 C 27.789062 17.566406 27.785156 17.824219 27.933594 17.984375 C 28.011719 18.0625 28.117188 18.105469 28.222656 18.105469 C 28.324219 18.105469 28.425781 18.066406 28.5 17.996094 C 28.660156 17.84375 28.664062 17.589844 28.511719 17.429688 C 28.4375 17.351562 28.335938 17.308594 28.234375 17.304688 Z M 4.519531 17.960938 C 4.417969 17.980469 4.324219 18.039062 4.265625 18.132812 C 4.140625 18.316406 4.191406 18.5625 4.375 18.6875 C 4.445312 18.730469 4.519531 18.757812 4.597656 18.757812 C 4.726562 18.757812 4.851562 18.691406 4.929688 18.574219 C 5.050781 18.390625 5.003906 18.144531 4.820312 18.023438 C 4.726562 17.960938 4.621094 17.941406 4.519531 17.960938 Z M 26.882812 18.25 C 26.832031 18.253906 26.78125 18.273438 26.730469 18.300781 C 26.542969 18.40625 26.476562 18.65625 26.589844 18.84375 C 26.660156 18.976562 26.796875 19.042969 26.933594 19.042969 C 27 19.042969 27.070312 19.027344 27.132812 18.992188 C 27.324219 18.878906 27.390625 18.636719 27.28125 18.449219 C 27.199219 18.304688 27.039062 18.230469 26.882812 18.25 Z M 13.707031 21.230469 C 14.453125 21.28125 15.214844 21.3125 16 21.3125 C 16.769531 21.3125 17.515625 21.28125 18.25 21.234375 C 17.503906 22.269531 16.738281 23.203125 15.976562 24.015625 C 15.214844 23.203125 14.449219 22.265625 13.707031 21.230469 Z M 7.988281 22.78125 C 7.769531 22.753906 7.566406 22.914062 7.542969 23.136719 C 7.523438 23.355469 7.679688 23.550781 7.898438 23.574219 C 7.914062 23.574219 7.929688 23.578125 7.945312 23.578125 C 8.144531 23.578125 8.320312 23.429688 8.339844 23.21875 C 8.363281 23 8.207031 22.804688 7.988281 22.78125 Z M 24.046875 23.371094 C 23.828125 23.382812 23.660156 23.570312 23.671875 23.792969 C 23.683594 24.003906 23.859375 24.167969 24.070312 24.167969 L 24.097656 24.167969 C 24.316406 24.15625 24.484375 23.96875 24.472656 23.742188 C 24.460938 23.523438 24.269531 23.355469 24.046875 23.371094 Z M 7.867188 24.375 C 7.644531 24.386719 7.476562 24.574219 7.488281 24.796875 C 7.496094 25.007812 7.675781 25.175781 7.886719 25.175781 L 7.90625 25.175781 C 8.128906 25.164062 8.296875 24.976562 8.285156 24.757812 C 8.277344 24.535156 8.089844 24.363281 7.867188 24.375 Z M 24.085938 24.96875 C 23.863281 24.941406 23.660156 25.097656 23.632812 25.3125 C 23.605469 25.53125 23.753906 25.730469 23.976562 25.765625 C 23.992188 25.765625 24.011719 25.769531 24.027344 25.769531 C 24.222656 25.769531 24.398438 25.621094 24.425781 25.421875 C 24.457031 25.199219 24.300781 25 24.085938 24.96875 Z M 8.191406 25.945312 C 8.140625 25.941406 8.089844 25.949219 8.035156 25.96875 C 7.828125 26.039062 7.71875 26.273438 7.792969 26.480469 C 7.851562 26.644531 8.003906 26.742188 8.167969 26.742188 C 8.210938 26.742188 8.261719 26.734375 8.304688 26.71875 C 8.511719 26.648438 8.621094 26.414062 8.542969 26.210938 C 8.488281 26.050781 8.347656 25.953125 8.191406 25.945312 Z M 13.59375 26.335938 C 13.492188 26.316406 13.382812 26.339844 13.292969 26.398438 C 13.113281 26.527344 13.066406 26.777344 13.191406 26.957031 C 13.273438 27.066406 13.394531 27.128906 13.519531 27.128906 C 13.601562 27.128906 13.679688 27.109375 13.753906 27.058594 C 13.933594 26.933594 13.976562 26.683594 13.851562 26.5 C 13.789062 26.410156 13.695312 26.355469 13.59375 26.335938 Z M 23.605469 26.488281 C 23.449219 26.46875 23.292969 26.539062 23.207031 26.683594 C 23.101562 26.875 23.164062 27.121094 23.355469 27.230469 C 23.421875 27.269531 23.488281 27.285156 23.554688 27.285156 C 23.695312 27.285156 23.828125 27.210938 23.902344 27.085938 C 24.011719 26.890625 23.949219 26.648438 23.757812 26.539062 C 23.707031 26.511719 23.65625 26.496094 23.605469 26.488281 Z M 19.347656 26.882812 C 19.195312 26.867188 19.039062 26.945312 18.957031 27.089844 C 18.851562 27.28125 18.917969 27.523438 19.113281 27.632812 C 19.175781 27.664062 19.238281 27.679688 19.308594 27.679688 C 19.449219 27.679688 19.585938 27.609375 19.65625 27.476562 C 19.765625 27.285156 19.695312 27.039062 19.5 26.933594 C 19.453125 26.90625 19.402344 26.890625 19.347656 26.882812 Z M 12.125 27.132812 C 12.074219 27.132812 12.023438 27.144531 11.972656 27.167969 C 11.773438 27.261719 11.683594 27.5 11.777344 27.699219 C 11.84375 27.847656 11.988281 27.933594 12.140625 27.933594 C 12.195312 27.933594 12.25 27.921875 12.308594 27.894531 C 12.507812 27.804688 12.597656 27.5625 12.503906 27.363281 C 12.433594 27.214844 12.28125 27.128906 12.125 27.132812 Z M 9.011719 27.230469 C 8.914062 27.25 8.816406 27.304688 8.757812 27.394531 C 8.632812 27.574219 8.675781 27.828125 8.859375 27.953125 C 8.929688 28 9.007812 28.023438 9.085938 28.023438 C 9.210938 28.023438 9.335938 27.964844 9.414062 27.847656 C 9.539062 27.667969 9.492188 27.421875 9.3125 27.292969 C 9.222656 27.230469 9.113281 27.210938 9.011719 27.230469 Z M 22.394531 27.492188 C 22.34375 27.488281 22.289062 27.492188 22.234375 27.511719 C 22.027344 27.578125 21.910156 27.804688 21.980469 28.015625 C 22.035156 28.183594 22.191406 28.292969 22.359375 28.292969 C 22.398438 28.292969 22.445312 28.285156 22.484375 28.273438 C 22.695312 28.203125 22.808594 27.976562 22.738281 27.769531 C 22.6875 27.609375 22.550781 27.503906 22.394531 27.492188 Z M 20.71875 27.492188 C 20.566406 27.519531 20.433594 27.632812 20.394531 27.792969 C 20.339844 28.007812 20.472656 28.222656 20.683594 28.28125 L 20.683594 28.277344 C 20.714844 28.289062 20.753906 28.292969 20.785156 28.292969 C 20.960938 28.292969 21.125 28.167969 21.171875 27.988281 C 21.222656 27.773438 21.09375 27.554688 20.878906 27.5 C 20.824219 27.488281 20.773438 27.484375 20.71875 27.492188 Z M 10.574219 27.578125 C 10.355469 27.601562 10.191406 27.792969 10.210938 28.011719 C 10.230469 28.21875 10.40625 28.375 10.613281 28.375 L 10.648438 28.375 C 10.867188 28.355469 11.03125 28.160156 11.007812 27.941406 C 10.992188 27.71875 10.796875 27.558594 10.574219 27.578125 Z M 10.574219 27.578125 "/>
</g>
</svg>
